<?xml version="1.0" standalone="no"?><!DOCTYPE svg PUBLIC "-//W3C//DTD SVG 1.1//EN" "http://www.w3.org/Graphics/SVG/1.1/DTD/svg11.dtd"><svg t="1507359293523" class="icon" style="" viewBox="0 0 1024 1024" version="1.1" xmlns="http://www.w3.org/2000/svg" p-id="3232" xmlns:xlink="http://www.w3.org/1999/xlink" width="200" height="200"><defs><style type="text/css"></style></defs><path d="M945.499112 599.791485l-616.403838 0.016373 35.595706-70.670549 9.218966-18.303878c2.690272-3.883447 4.27128-8.594749 4.27128-13.676487 0-13.281491-10.766205-24.047696-24.047696-24.047696-9.481955 0-17.678638 5.490038-21.594831 13.462616l-0.00921-0.005117-10.722202 21.285792-46.315862 91.957365-139.417283 0.004093 213.865879-382.217145 138.698922 219.279169 20.643156 32.636305 20.147876-32.93818 75.612095-123.611296 84.228333 239.253082c0.1361 0.451278 0.282433 0.899486 0.445138 1.339508l0.962931 2.898003 0.285502-0.093121c4.012384 7.688099 12.054547 12.939707 21.326724 12.939707 13.281491 0 24.047696-10.766205 24.047696-24.047696 0-1.242294-0.094144-2.463098-0.276293-3.65525l0.149403-0.049119-0.340761-1.026376c-0.391926-1.961678-1.02126-3.837398-1.858324-5.595438l-92.219331-263.311011c-10.487865-31.574113-45.635363-35.823903-63.125713-7.230682l-70.066799 114.545826L381.822149 178.49837c-16.829294-26.608008-50.485835-25.669636-65.818031 1.732457L81.230046 599.815021l-9.600659 0c-14.420431 0-23.808242 11.109012-29.824259 21.706371-5.056156 10.295484-11.471262 35.533284-11.471262 49.245587 0 109.204168 165.908634 191.56599 385.9297 191.56599 120.304993 0 333.99384-39.438221 376.928698-118.0353l152.306848 0c26.336832 0 47.780213-21.403472 47.780213-47.734164l0-49.013297C993.279325 621.218494 971.835943 599.791485 945.499112 599.791485zM758.855224 703.69595c-2.450818 6.445806-6.069229 13.246699-6.069229 13.246699-4.986571 32.605605-153.969721 97.79328-336.52243 97.79328-202.170512 0-337.985758-74.437339-337.985758-143.970996 0-4.461615 2.574638-16.012695 4.939499-23.355941l547.133172-0.023536 314.984904 0.162706 0.163729 49.152467L769.424954 696.700629C769.424954 696.701652 761.579265 696.53076 758.855224 703.69595z" p-id="3233" fill="#1afa29"></path></svg>