<?xml version="1.0" standalone="no"?><!DOCTYPE svg PUBLIC "-//W3C//DTD SVG 1.1//EN" "http://www.w3.org/Graphics/SVG/1.1/DTD/svg11.dtd"><svg t="1507359255585" class="icon" style="" viewBox="0 0 1024 1024" version="1.1" xmlns="http://www.w3.org/2000/svg" p-id="2449" xmlns:xlink="http://www.w3.org/1999/xlink" width="200" height="200"><defs><style type="text/css"></style></defs><path d="M798.013571 67.707055c-62.378699 0-116.473735 35.44221-143.262868 87.283925-26.789133-51.841715-80.884169-87.283925-143.262868-87.283925-61.987796 0-115.79119 35.002189-142.751215 86.313831-26.960025-51.312666-80.763418-86.313831-142.751215-86.313831-89.007173 0-161.16254 72.155367-161.16254 161.16254 0 80.597643 59.164494 147.375535 136.432299 159.27454l0 29.540803 632.403231 0 0-31.616068c71.854515-16.223496 125.517715-80.441077 125.517715-157.199275C959.176111 139.862421 887.020744 67.707055 798.013571 67.707055z" p-id="2450" fill="#1afa29"></path><path d="M833.658396 460.663798 201.255165 460.663798 234.858494 843.380316 800.055067 843.380316Z" p-id="2451" fill="#1afa29"></path><path d="M875.381659 902.806777 147.592988 902.806777c-12.843516 0-23.254633 12.025894-23.254633 26.860764l0 1.534959c0 14.833847 10.411117 26.859741 23.254633 26.859741l727.788671 0c12.843516 0 23.255657-12.025894 23.255657-26.859741l0-1.534959C898.637316 914.832671 888.225175 902.806777 875.381659 902.806777z" p-id="2452" fill="#1afa29"></path></svg>