<?xml version="1.0" standalone="no"?><!DOCTYPE svg PUBLIC "-//W3C//DTD SVG 1.1//EN" "http://www.w3.org/Graphics/SVG/1.1/DTD/svg11.dtd"><svg t="1508911964141" class="icon" style="" viewBox="0 0 1024 1024" version="1.1" xmlns="http://www.w3.org/2000/svg" p-id="2372" xmlns:xlink="http://www.w3.org/1999/xlink" width="48" height="48"><defs><style type="text/css"></style></defs><path d="M512 20.48c-271.4624 0-491.52 220.0576-491.52 491.52s220.0576 491.52 491.52 491.52 491.52-220.0576 491.52-491.52S783.4624 20.48 512 20.48zM750.8992 664.064c23.8592 23.8592 23.8592 62.976 0 86.9376s-62.976 23.8592-86.9376 0L512 598.9376l-152.064 152.064c-23.8592 23.8592-62.976 23.8592-86.9376 0s-23.8592-62.976 0-86.9376l152.064-152.064-152.064-152.064c-23.8592-23.8592-23.8592-62.976 0-86.9376s62.976-23.8592 86.9376 0l152.064 152.064 152.064-152.064c23.8592-23.8592 62.976-23.8592 86.9376 0s23.8592 62.976 0 86.9376l-152.064 152.064L750.8992 664.064z" p-id="2373" fill="#d81e06"></path></svg>