<?xml version="1.0" standalone="no"?><!DOCTYPE svg PUBLIC "-//W3C//DTD SVG 1.1//EN" "http://www.w3.org/Graphics/SVG/1.1/DTD/svg11.dtd"><svg t="1507042469881" class="icon" style="" viewBox="0 0 1024 1024" version="1.1" xmlns="http://www.w3.org/2000/svg" p-id="2646" xmlns:xlink="http://www.w3.org/1999/xlink" width="200" height="200"><defs><style type="text/css"></style></defs><path d="M896.026862 255.432577c-1.873674-0.818645-3.945869-1.471514-6.229888-1.920746-140.713812-27.703969-255.82041-95.024214-369.092219-181.287903-7.084349-5.395894-21.280676-5.601578-28.353768-0.156566-51.80897 39.86187-105.196901 78.69327-162.056909 110.878297-62.286602 35.259038-138.431839 51.794643-207.121268 69.971631-18.305925 4.843308-22.972201 22.106484-18.251689 36.156478 5.742794 130.559545 27.082822 267.63755 81.542154 386.53959 57.502645 125.551484 193.046714 219.522716 313.852104 276.79307 4.189416 1.984191 8.308223 2.90005 12.239765 2.966565 5.061272 0.602727 10.529821-0.217964 16.116049-2.966565 121.032564-59.554374 245.295706-153.282059 306.58049-276.79307 58.370409-117.633141 76.629261-262.908852 81.838913-393.32104C917.718907 266.586614 907.741671 257.649058 896.026862 255.432577zM786.74697 646.961808c-50.78464 110.88239-165.498288 194.650235-272.508487 249.434979C407.207817 843.482647 298.041512 764.820076 240.718969 658.549727c-56.094576-103.994516-73.254398-238.410901-79.0678-357.180935 60.761875-16.235776 121.515564-33.574676 179.082678-59.066257 59.431577-26.317389 114.295116-68.052932 166.199253-108.194164 108.50218 78.642105 220.125443 142.53939 352.881003 171.635055C853.580121 420.959517 834.536392 542.625508 786.74697 646.961808z" p-id="2647" fill="#f4ea2a"></path><path d="M445.333136 610.467639 408.108327 610.467639 285.754674 421.203064c-3.455705-5.340635-6.230911-10.627035-8.324596-15.863293l-0.942465 0c0.837064 5.446036 1.25662 16.805758 1.25662 34.08326l0 171.044608-31.099299 0L246.644935 367.172497l39.422871 0 119.05656 185.965435c5.653767 8.79634 9.004071 14.397918 10.051937 16.806781l0.62831 0c-1.047866-6.91141-1.570775-18.742876-1.570775-35.496445L414.233837 367.172497l31.099299 0L445.333136 610.467639z" p-id="2648" fill="#f4ea2a"></path><path d="M492.452293 491.725234c0-39.266305 10.627035-70.52217 31.884175-93.767594 21.255093-23.245424 50.049906-34.869159 86.386486-34.869159 33.821293 0 61.044308 11.362792 81.674161 34.08326 20.626783 22.723537 30.94171 52.303226 30.94171 88.742137 0 39.477107-10.577916 70.784136-31.727609 93.925183-21.152762 23.143093-49.424666 34.71157-84.815711 34.71157-34.555004 0-62.252833-11.360745-83.087347-34.08326C502.870574 557.746904 492.452293 528.164145 492.452293 491.725234zM525.436522 489.213018c0 29.42517 7.513114 53.010331 22.539342 70.75753 15.024182 17.749246 34.632775 26.623357 58.820664 26.623357 25.967418 0 46.358841-8.506744 61.176314-25.523303 14.81645-17.014512 22.225187-40.809451 22.225187-71.38584 0-31.413454-7.252171-55.652508-21.753443-72.721255-14.504342-17.065677-34.372855-25.602098-59.606563-25.602098-24.816199 0-44.920072 9.007141-60.312644 27.015284C533.132808 436.386882 525.436522 459.998649 525.436522 489.213018z" p-id="2649" fill="#f4ea2a"></path><path d="M742.031559 594.289168c0-5.653767 1.936095-10.41828 5.811356-14.292518 3.872191-3.873214 8.689916-5.812379 14.450107-5.812379 5.862521 0 10.731412 1.963725 14.606673 5.89015 3.872191 3.926426 5.811356 8.66638 5.811356 14.214746 0 5.446036-1.939165 10.130731-5.811356 14.057157-3.875261 3.926426-8.79634 5.89015-14.764262 5.89015-5.760191 0-10.55131-1.963725-14.372336-5.89015C743.940025 604.420923 742.031559 599.735204 742.031559 594.289168z" p-id="2650" fill="#f4ea2a"></path></svg>