<?xml version="1.0" standalone="no"?><!DOCTYPE svg PUBLIC "-//W3C//DTD SVG 1.1//EN" "http://www.w3.org/Graphics/SVG/1.1/DTD/svg11.dtd"><svg t="1507359345252" class="icon" style="" viewBox="0 0 1024 1024" version="1.1" xmlns="http://www.w3.org/2000/svg" p-id="4691" xmlns:xlink="http://www.w3.org/1999/xlink" width="200" height="200"><defs><style type="text/css"></style></defs><path d="M817.645 674.172c-17.206 0-31.129 13.938-31.129 31.128v246.444H140.601V379.759h645.915v35.02c0 17.19 13.923 31.128 31.129 31.128 17.205 0 31.128-13.938 31.128-31.128V138.514c0-17.19-13.923-31.128-31.128-31.128H601.018C579.283 52.735 525.86 14 463.559 14c-62.303 0-115.726 38.735-137.46 93.385H109.472c-17.206 0-31.128 13.938-31.128 31.128V982.87c0 17.191 13.923 31.129 31.128 31.129h708.172c17.205 0 31.128-13.938 31.128-31.129V705.3c0-17.191-13.922-31.128-31.127-31.128z m-471.791-504.53a30.999 30.999 0 0 0 20.583-7.782h11.518c0-47.209 38.394-85.604 85.604-85.604 47.209 0 85.603 38.394 85.603 85.604h11.487a31.002 31.002 0 0 0 20.584 7.782h205.283v163.424H140.601V169.642h205.253z" p-id="4692" fill="#1afa29"></path><path d="M615.31 512.055c0-12.889-10.457-23.346-23.347-23.346H280.679c-12.889 0-23.347 10.457-23.347 23.346s10.458 23.346 23.347 23.346h311.284c12.89 0 23.347-10.457 23.347-23.346zM467.449 644.351h-186.77c-12.889 0-23.347 10.457-23.347 23.346s10.458 23.346 23.347 23.346H467.45c12.89 0 23.347-10.457 23.347-23.346s-10.458-23.346-23.348-23.346zM467.449 799.992h-186.77c-12.889 0-23.347 10.457-23.347 23.346 0 12.891 10.458 23.348 23.347 23.348H467.45c12.89 0 23.347-10.457 23.347-23.348-0.001-12.889-10.458-23.346-23.348-23.346zM556.943 823.338l93.386-46.692 319.065-311.284c0-58.366-50.583-42.802-50.583-42.802L591.963 729.954l-35.02 93.384z" p-id="4693" fill="#1afa29"></path></svg>