<?xml version="1.0" standalone="no"?><!DOCTYPE svg PUBLIC "-//W3C//DTD SVG 1.1//EN" "http://www.w3.org/Graphics/SVG/1.1/DTD/svg11.dtd"><svg t="1507472551962" class="icon" style="" viewBox="0 0 1024 1024" version="1.1" xmlns="http://www.w3.org/2000/svg" p-id="5524" xmlns:xlink="http://www.w3.org/1999/xlink" width="200" height="200"><defs><style type="text/css"></style></defs><path d="M302.08 844.8l171.52-69.632 38.4-15.36 38.4 15.36L721.92 844.8l-5.12-189.44-1.024-37.376 23.552-29.184 110.08-137.216-177.152-53.76-34.304-10.24-20.48-29.184L512 205.312 406.528 357.888l-20.48 29.184-34.304 10.24-177.152 53.76 110.08 137.216 23.552 29.184-1.024 37.888-5.12 189.44m526.336 153.6L512 870.4l-316.416 128 9.216-346.112L0 397.312l322.048-97.792L512 25.6l189.952 273.92L1024 397.312l-204.8 254.976 9.216 346.112z" p-id="5525"></path></svg>