<?xml version="1.0" standalone="no"?><!DOCTYPE svg PUBLIC "-//W3C//DTD SVG 1.1//EN" "http://www.w3.org/Graphics/SVG/1.1/DTD/svg11.dtd"><svg t="1507774727503" class="icon" style="" viewBox="0 0 1024 1024" version="1.1" xmlns="http://www.w3.org/2000/svg" p-id="3633" xmlns:xlink="http://www.w3.org/1999/xlink" width="128" height="128"><defs><style type="text/css"></style></defs><path d="M995.6608 370.8416l-150.912-238.6944c-12.3392-19.7376-39.552-25.9584-61.824-13.5936L33.408 592.2816a46.6944 46.6944 0 0 0-13.6192 61.824l149.7088 236.2624a46.72 46.72 0 0 0 61.8496 13.5936l749.44-474.9568c21.0432-11.1616 27.2384-38.3232 14.8736-58.1632z m-30.8992 34.6624L215.2192 880.4608c-6.1696 4.9152-14.848 1.2544-19.7888-4.9152l-149.6576-236.2368c-4.9152-6.1952-2.4832-16.1024 3.7376-19.7888L799.0016 144.5376c6.1952-4.9408 14.8224-1.2288 19.7888 4.9664l150.8608 236.2368c4.9408 6.1696 1.28 16.0512-4.8896 19.7632zM311.68 226.176l-2.4832-32.1536 27.2128 17.3056 29.6704-13.5936-7.3728 30.8992 20.992 24.7552-33.408 2.4832-14.8224 27.2128-12.3648-29.6704-30.9504-6.1696c-1.2032 1.1776 23.5264-21.0688 23.5264-21.0688z m169.472-59.392l13.6192-29.6448 14.7968 27.2128 32.1792 2.432-21.0176 23.5264 6.1696 32.1792-29.696-13.6192-27.1872 17.3056 4.9152-32.1536-24.7552-21.0432c-1.2288 0 30.976-6.1952 30.976-6.1952z m222.6176 633.2416l2.4576 32.1792-27.2128-17.3056-29.6448 12.3392 7.3984-30.9504-21.0176-24.704 32.2048-2.5344 17.28-27.2128 12.3648 29.696 30.9248 6.1696-24.7552 22.3232z m-169.4464 58.112l-14.848 29.696-14.848-27.2128-32.1536-2.4832 23.5008-23.5008-6.1696-30.9504 29.6704 13.5936 27.2128-14.7968-4.9152 32.1536 23.4752 20.992c-0.0256-3.6096-30.9248 2.5088-30.9248 2.5088zM196.6592 359.7568l-18.5344-25.984 32.1536 1.2288 19.7632-25.984 8.6784 30.9504 30.9504 11.136-26.0096 18.56v32.1536l-24.7296-19.7888-30.9248 8.6784c-2.4576-0.0256 8.6528-30.9504 8.6528-30.9504z" fill="#687280" p-id="3634"></path><path d="M290.6624 169.2672c123.6992-79.1552 275.7888-80.4352 398.2592-18.5856l29.6704-18.5856c-35.84-19.7376-75.4432-35.84-116.2496-44.4672a440.2944 440.2944 0 0 0-165.76-4.9664c-56.8832 8.6528-111.3088 29.696-160.768 61.824-49.4848 32.1792-91.52 70.5024-123.6736 118.784a438.4256 438.4256 0 0 0-66.7648 152.064c-8.704 42.112-12.3648 82.8928-8.704 123.7248l29.7216-18.6112c-7.4496-137.1904 59.392-273.2544 184.2688-351.1808z m431.6672 680.2944c-123.6992 79.1552-274.5856 80.384-397.0304 18.56l-29.6704 18.56c35.8656 19.7376 75.392 35.8656 116.224 44.4928a440.32 440.32 0 0 0 165.76 4.9408c56.9088-8.6528 111.36-30.9504 160.768-61.7984 49.4848-31.0016 91.5456-70.5536 123.6992-118.8096 32.1792-47.0016 53.1968-97.6384 65.5872-152.0896 8.6528-42.0864 12.3392-81.6128 8.6528-123.6736l-27.2128 18.5856c3.6864 137.216-63.0784 273.28-186.7776 351.232z" fill="#687280" p-id="3635"></path><path d="M380.9792 310.272a241.3056 241.3056 0 0 1 111.3088-35.84l45.7216-29.7216c-60.5696-7.3728-119.936 6.2208-173.1328 39.6288-51.9424 32.128-89.0624 81.6128-110.08 138.496l45.7728-29.696c18.56-32.1792 44.544-61.8752 80.4096-82.8672z m252.2624 398.2336a241.152 241.152 0 0 1-111.3344 35.8656l-45.7216 29.696c60.5952 7.3728 119.936-6.1952 173.1584-39.6288 51.8912-32.1024 89.0368-81.6128 110.08-138.4704l-45.7728 29.6704c-18.56 30.8992-46.976 61.8496-80.4096 82.8672z" fill="#687280" p-id="3636"></path><path d="M264.5504 547.2l26.4448-20.7104c4.3264 3.5072 9.3696 7.68 15.1808 12.5696l60.1344-38.6304 19.6608 30.6176-22.8608 14.6688-8.0384-12.5184-106.5984 68.5056 8.0384 12.5184-22.8864 14.6688-19.6608-30.592 63.8976-41.0624a271.7696 271.7696 0 0 0-13.312-10.0352z m39.168 166.5536L247.296 625.92l53.12-34.1248-8.2432-12.8256 23.7056-15.232 8.2432 12.8256 53.12-34.1504 56.4224 87.8336-22.3744 14.3872-5.0688-7.8848-30.7712 19.7632 20.9152 32.5632-23.68 15.232-20.9152-32.5632-30.7712 19.7376 5.0688 7.8848-22.3488 14.3872z m-13.7728-70.6048l30.7712-19.7376-9.088-14.1568-30.7456 19.7376 9.0624 14.1568z m19.8912 30.8992l30.7456-19.7376-9.088-14.1568-30.7712 19.7376 9.1136 14.1568z m56.2432-99.7888l-30.7456 19.7632 9.0624 14.1568 30.7712-19.7632-9.088-14.1568z m-1.8176 64.8192l30.7456-19.7632-9.088-14.1568-30.7712 19.7632 9.1136 14.1568zM427.52 574.0544a215.9872 215.9872 0 0 0-9.1904-56.8576l-18.176 11.6992-13.7472-21.4016 19.584-12.5696-18.6112-28.928 20.8896-13.4144 18.5856 28.928 16.4608-10.5728 13.7472 21.4016-16.4608 10.5728 8.2432 12.8256c10.3424 1.024 21.2736 2.3552 32.7936 4.0448l-4.6592 25.2928a389.76 389.76 0 0 0-10.9312-2.5088l46.08 71.7312-20.864 13.4144-43.4944-67.712c2.432 13.056 3.8912 26.6496 4.352 40.7808-9.3952-10.5472-17.5872-19.456-24.6016-26.7264z m126.9504-161.9712l-53.5296 34.4064c-0.2816 11.648-0.8448 23.8592-1.6896 36.6336l20.096-14.08c1.152-11.1104 1.3568-22.0928 0.5888-32.9216l26.2144-1.5104c2.048 45.6192-8.6528 90.7264-32.128 135.2192a250.7264 250.7264 0 0 0-24.96-6.9888c11.0848-20.864 19.2-41.344 24.3968-61.3376-12.0064 9.0624-20.9664 15.9232-26.8288 20.6336l-16.5888-12.8c3.6096-8.8576 4.736-23.936 3.4048-45.2096l-22.6048 14.5152-12.4672-19.4048L475.8016 435.2a343.552 343.552 0 0 0-16.3072-10.7008l21.6576-20.1984c6.6816 3.8912 13.8496 8.448 21.4272 13.6704l39.3984-25.3184 12.4928 19.4304z m4.0448 45.0304l25.4464-0.5632a273.152 273.152 0 0 1-7.0912 55.1168c17.2288 1.664 32.7424 3.8656 46.5664 6.7072l-5.2736 28.7232a389.3504 389.3504 0 0 0-48.6144-10.24 278.1696 278.1696 0 0 1-30.0544 61.056 401.5104 401.5104 0 0 0-25.472-7.808c27.8528-45.6704 42.7008-90.0096 44.4928-132.992zM604.0576 325.376l25.0112-16.0512 18.688 29.1072 61.3376-39.424 59.2896 92.288-24.3456 15.6416-7.296-11.3408-36.992 23.7824 34.0224 52.9664-25.0112 16.0512-34.0224-52.9664-37.0176 23.7824 7.6288 11.8528-24.3456 15.6416-59.5968-92.8 61.3376-39.424-18.688-29.1072z m19.0976 111.1296l37.0176-23.7824-22.8352-35.5328-37.0176 23.7824 22.8352 35.5328z m76.1856-99.1488l-36.992 23.7824 22.8352 35.5328 36.992-23.7824-22.8352-35.5328z" fill="#687280" p-id="3637"></path></svg>