<?xml version="1.0" standalone="no"?><!DOCTYPE svg PUBLIC "-//W3C//DTD SVG 1.1//EN" "http://www.w3.org/Graphics/SVG/1.1/DTD/svg11.dtd"><svg t="1507789187218" class="icon" style="" viewBox="0 0 1024 1024" version="1.1" xmlns="http://www.w3.org/2000/svg" p-id="5648" xmlns:xlink="http://www.w3.org/1999/xlink" width="128" height="128"><defs><style type="text/css"></style></defs><path d="M474.542816 238.428445l21.137207 21.137207c6.099487 6.099487 12.208991 6.109504 18.319747 0l9.158621-9.158621L492.861311 220.109949 474.542816 238.428445z" fill="#bfbfbf" p-id="5649"></path><path d="M448.475375 212.357921l-31.001686-31.001686 18.318736-18.318736 31.001686 31.001686-18.318736 18.318736Z" fill="#bfbfbf" p-id="5650"></path><path d="M527.382344 185.584508l30.295996 30.295996-16.909125 16.909125-30.295996-30.295996 16.909125-16.909125Z" fill="#bfbfbf" p-id="5651"></path><path d="M470.31273 128.51641l31.001686 31.001686-16.909125 16.909125-31.001686-31.001686 16.909125-16.909125Z" fill="#bfbfbf" p-id="5652"></path><path d="M794.417835 516.035091l54.957092-54.957092 34.524826 34.524826-54.957092 54.957092-34.524826-34.524826Z" fill="#bfbfbf" p-id="5653"></path><path d="M857.128764 578.741232l23.955918 23.955918c6.571568 7.518234 13.849378 7.286576 21.840946-0.704991L946.610024 558.307763l-34.52327-34.52327L857.128764 578.741232z" fill="#bfbfbf" p-id="5654"></path><path d="M647.45218 0l-639.322871 0-2.396719 2.396719-3.022821 3.022821 1018.581712 1018.581712L1021.291482 373.840554 647.45218 0zM764.827541 314.522389l12.683576-12.682324 28.18336 28.18336-12.683576 12.682324 37.341981 37.341981L812.739378 397.662487l-52.841765-52.841765c-20.675144 8.453631-40.876954 11.745675-60.594161 9.863612 7.506964 7.508216 15.963099 15.03772 25.364648 22.545937 8.453631-2.818712 17.614756-6.33991 27.477117-10.568603l25.364648 25.364648C723.488523 420.683009 666.880128 420.440081 607.708471 391.321325l17.613504-17.614756c28.17209 9.391531 51.654675 12.683576 70.457774 9.863612-12.220261-10.326928-24.658405-21.840946-37.341981-34.524522l17.613504-17.614756c20.665126-0.935397 39.688612-5.404513 57.071711-13.386063l-23.249675-23.249675 17.613504-17.614756L764.827541 314.522389zM492.862563 38.32997l62.002891 62.002891 10.567351-10.568603 31.003324 31.002072-10.568603 10.568603 62.002891 62.002891-30.295828 30.297081-26.069639-26.069639 13.386063-13.387315-102.867323-102.867323-13.387315 13.387315-26.069639-26.069639L492.862563 38.32997zM485.81641 284.931552l-28.888351-28.888351L432.268402 280.704111l-26.068387-26.068387 24.659657-24.659657-54.252999-54.252999 87.367539-87.367539 54.252999 54.252999 14.796045-14.796045 26.068387 26.068387-14.796045 14.796045 54.252999 54.252999-61.2979 61.2979C520.340932 301.136326 503.189491 301.379254 485.81641 284.931552zM535.840716 384.277676l66.935323-66.935323c-19.739747 6.571568-37.122846 11.272342-52.139278 14.091054l24.659657-24.659657c27.710027-10.800261 55.177126-26.068387 82.435107-45.798116l-16.204775-16.204775 16.911018-16.909765 16.909765 16.909765 23.250928-23.250928 23.249675 23.249675-23.250928 23.250928 14.092306 14.092306-16.909765 16.909765-13.387315-13.387315c-13.155657 18.791828-22.545937 38.046972-28.18336 57.775449l-24.659657 24.659657c2.345378-13.617721 4.922415-26.542972 7.749892-38.751963L559.090391 407.527352 535.840716 384.277676zM680.279965 528.714422c-13.155657-27.245459-19.255144-50.739314-18.319747-70.457774-26.311315-6.582837-54.95799-17.394369-85.958809-32.410801l16.909765-16.909765c55.893387 25.837981 108.26307 27.941684 157.121574 6.341162l23.955918 23.955918c-27.721297 13.62899-54.264269 20.904297-79.616395 21.842198-4.228694 15.499784-3.534972 32.641207 2.113721 51.433035L680.279965 528.714422zM928.995268 626.651816c-20.673891 21.600522-39.69863 22.788864-57.069206 3.52245l-33.11454-33.11454-45.798116 45.798116-28.18336-28.18336 45.798116-45.798116-59.88917-59.88917 90.889989-90.889989 59.88917 59.88917 27.478369-27.478369 28.18336 28.18336-27.478369 27.478369 59.887918 59.887918L928.995268 626.651816z" fill="#bfbfbf" p-id="5655"></path></svg>