<?xml version="1.0" standalone="no"?><!DOCTYPE svg PUBLIC "-//W3C//DTD SVG 1.1//EN" "http://www.w3.org/Graphics/SVG/1.1/DTD/svg11.dtd"><svg t="1507042417555" class="icon" style="" viewBox="0 0 1024 1024" version="1.1" xmlns="http://www.w3.org/2000/svg" p-id="1839" xmlns:xlink="http://www.w3.org/1999/xlink" width="200" height="200"><defs><style type="text/css"></style></defs><path d="M945.231 719.399h78.769v112.601c0 106.063-85.937 192-192 192h-112.601v-78.769h112.601c62.425 0 113.231-50.767 113.231-113.231v-112.601zM78.769 832v-112.601h-78.769v112.601c0 106.063 85.937 192 192 192h112.601v-78.769h-112.601c-62.425 0-113.231-50.767-113.231-113.231zM78.769 192c0-62.464 50.806-113.231 113.231-113.231h112.601v-78.769h-112.601c-106.063 0-192 85.937-192 192v112.561h78.769v-112.561zM0 550.951h1024v-77.942h-1024v77.942zM832 0h-112.601v78.769h112.601c62.425 0 113.231 50.767 113.231 113.231v112.561h78.769v-112.561c0-106.063-85.937-192-192-192z" fill="#f4ea2a" p-id="1840"></path></svg>