<?xml version="1.0" standalone="no"?><!DOCTYPE svg PUBLIC "-//W3C//DTD SVG 1.1//EN" "http://www.w3.org/Graphics/SVG/1.1/DTD/svg11.dtd"><svg t="1507359324168" class="icon" style="" viewBox="0 0 1024 1024" version="1.1" xmlns="http://www.w3.org/2000/svg" p-id="3961" xmlns:xlink="http://www.w3.org/1999/xlink" width="200" height="200"><defs><style type="text/css"></style></defs><path d="M951.296 162.816c-9.728-14.848-24.576-24.576-44.032-24.576l-92.672-11.264v-27.648c0-38.912-29.184-68.096-68.096-68.096h-619.52c-38.912 0-68.096 29.184-68.096 68.096v824.32c0 38.912 29.184 68.096 68.096 68.096h587.264l80.896 9.728h5.12c34.304 0 63.488-24.576 68.096-58.368l97.28-731.648c0.512-19.456-4.608-33.792-14.336-48.64z m-195.072 760.832c0 5.12-5.12 9.728-9.728 9.728h-619.52c-5.12 0-9.728-5.12-9.728-9.728v-824.32c0-5.12 5.12-9.728 9.728-9.728h619.52c5.12 0 9.728 5.12 9.728 9.728v824.32z m151.04-701.952c-28.672 199.168-77.312 563.712-92.672 679.936V196.096l82.944 10.752s9.728 0 9.728 5.12v9.728z" p-id="3962" fill="#1afa29"></path><path d="M644.096 206.848h-409.6c-14.848 0-29.184 14.848-29.184 29.184 0 14.848 14.848 29.184 29.184 29.184h409.6c14.848 0 29.184-14.848 29.184-29.184 0-14.336-14.336-29.184-29.184-29.184zM537.088 479.744h-302.08c-14.848 0-29.184 14.848-29.184 29.184s14.848 29.184 29.184 29.184h302.08c14.848 0 29.184-14.848 29.184-29.184s-14.848-29.184-29.184-29.184zM390.656 753.152h-156.16c-14.848 0-29.184 9.728-29.184 29.184 0 14.848 14.848 29.184 29.184 29.184h156.16c14.848 0 29.184-14.848 29.184-29.184 0-14.848-14.848-29.184-29.184-29.184z" p-id="3963" fill="#1afa29"></path></svg>