<?xml version="1.0" standalone="no"?><!DOCTYPE svg PUBLIC "-//W3C//DTD SVG 1.1//EN" "http://www.w3.org/Graphics/SVG/1.1/DTD/svg11.dtd"><svg t="1507797696425" class="icon" style="" viewBox="0 0 1024 1024" version="1.1" xmlns="http://www.w3.org/2000/svg" p-id="7536" xmlns:xlink="http://www.w3.org/1999/xlink" width="48" height="48"><defs><style type="text/css"></style></defs><path d="M865.52381 926.47619c0 26.819048-21.942857 48.761905-48.761905 48.761905l-609.52381 0c-26.819048 0-48.761905-21.942857-48.761905-48.761905l0-487.619048c0-26.819048 21.942857-48.761905 48.761905-48.761905l609.52381 0c26.819048 0 48.761905 21.942857 48.761905 48.761905L865.52381 926.47619zM517.12 46.08c110.689524-3.413333 208.213333 94.110476 202.118095 203.605333L719.238095 341.333333l-414.47619 0 0-91.672381c0-103.375238 97.52381-206.994286 209.67619-203.605333L517.12 46.055619zM813.83619 341.333333l-45.83619 0 0-91.672381c0-139.702857-115.078095-249.660952-256-249.660952s-256 109.958095-256 249.660952L256 341.333333l-48.761905 0c-53.881905 0-97.52381 43.641905-97.52381 97.52381l0 487.619048c0 53.881905 43.641905 97.52381 97.52381 97.52381l609.52381 0c53.881905 0 97.52381-43.641905 97.52381-97.52381l0-477.135238C914.285714 394.48381 868.937143 341.333333 813.83619 341.333333z" p-id="7537"></path><path d="M572.220952 681.20381c24.380952-18.285714 40.228571-47.299048 40.228571-79.750095 0-55.100952-45.129143-99.961905-100.449524-99.961905s-100.449524 44.860952-100.449524 99.961905c0 32.426667 15.847619 61.464381 40.228571 79.750095L402.285714 780.190476l219.428571 0L572.220952 681.20381zM475.428571 647.070476l0-0.975238c-14.872381-11.215238-24.380952-28.769524-24.380952-48.761905 0-33.645714 27.306667-60.952381 60.952381-60.952381s61.44 27.306667 61.44 60.952381c0 19.748571-10.24 37.302857-24.868571 48.249905l0 63.634286 23.649524 46.567619-121.904762 0 25.112381-46.567619L475.428571 647.070476z" p-id="7538"></path></svg>