<?xml version="1.0" standalone="no"?><!DOCTYPE svg PUBLIC "-//W3C//DTD SVG 1.1//EN" "http://www.w3.org/Graphics/SVG/1.1/DTD/svg11.dtd"><svg t="1507521376158" class="icon" style="" viewBox="0 0 1024 1024" version="1.1" xmlns="http://www.w3.org/2000/svg" p-id="6347" xmlns:xlink="http://www.w3.org/1999/xlink" width="32" height="32"><defs><style type="text/css"></style></defs><path d="M512 329.6c-100.8 0-182.4 81.6-182.4 182.4 0 100.8 81.6 182.4 182.4 182.4S696 612.8 696 512c0-100.8-83.2-182.4-184-182.4z m1.6 310.4c-70.4 0-128-57.6-128-128s57.6-128 128-128 128 57.6 128 128-57.6 128-128 128z" p-id="6348" fill="#1296db"></path><path d="M19.2 512C32 536 188.8 849.6 512 849.6c323.2 0 481.6-313.6 492.8-337.6-11.2-24-168-337.6-492.8-337.6C188.8 174.4 32 488 19.2 512z m827.2-131.2c30.4 32 59.2 68.8 83.2 107.2l12.8 22.4-8 14.4c-1.6 3.2-3.2 4.8-4.8 8-24 38.4-52.8 75.2-83.2 107.2-96 100.8-209.6 152-334.4 152-124.8 0-236.8-51.2-334.4-152-30.4-32-59.2-68.8-83.2-107.2L81.6 512l1.6-1.6c3.2-6.4 8-14.4 12.8-20.8 24-38.4 52.8-75.2 83.2-107.2 96-100.8 209.6-152 334.4-152 123.2-1.6 236.8 49.6 332.8 150.4z" p-id="6349" fill="#1296db"></path></svg>