<?xml version="1.0" standalone="no"?><!DOCTYPE svg PUBLIC "-//W3C//DTD SVG 1.1//EN" "http://www.w3.org/Graphics/SVG/1.1/DTD/svg11.dtd"><svg t="1507517273278" class="icon" style="" viewBox="0 0 1024 1024" version="1.1" xmlns="http://www.w3.org/2000/svg" p-id="4554" xmlns:xlink="http://www.w3.org/1999/xlink" width="200" height="200"><defs><style type="text/css"></style></defs><path d="M503.873536 121.593856l-43.442176 50.036736s-47.398912 260.685824-151.412736 263.323648c-19.750912-2.637824-9.224192 456.86784-9.224192 456.86784l487.153664-10.52672 114.548736-433.176576-125.075456-44.76928H585.506816l28.966912-225.140736-110.592-56.60672z" fill="#FFD041" p-id="4555"></path><path d="M164.184064 428.367872h107.97056v456.86784h-107.97056z" fill="#7FD2FF" p-id="4556"></path><path d="M905.05216 418.889728a109.535232 109.535232 0 0 0-86.294528-41.69728H626.19648a362.807296 362.807296 0 0 0 19.94752-92.012544c3.85024-47.947776-3.52256-90.537984-21.315584-123.158528-21.897216-40.1408-59.170816-65.16736-107.80672-72.392704-22.028288-3.2768-40.976384 0.958464-56.32 12.582912-31.014912 23.494656-36.70016 68.206592-43.302912 119.980032-5.267456 41.385984-11.239424 88.301568-31.309824 121.921536-13.39392 22.44608-39.469056 52.273152-110.952448 52.273152H200.54016c-49.676288 0-90.087424 40.402944-90.087424 90.054656v340.45952c0 49.659904 40.411136 90.054656 90.087424 90.054656h543.45728c24.73984 0 49.02912-8.462336 68.411392-23.822336a110.51008 110.51008 0 0 0 38.797312-61.177856l74.776576-319.627264a109.44512 109.44512 0 0 0-20.938752-93.437952z m-734.552064 408.018944V486.44096a30.06464 30.06464 0 0 1 30.040064-30.015488h63.291392v400.482304H200.54016a30.06464 30.06464 0 0 1-30.040064-30.007296z m697.008128-328.25344L792.73984 818.266112a49.84832 49.84832 0 0 1-48.7424 38.641664H323.87072V452.083712c50.724864-9.682944 88.891392-35.520512 113.770496-77.193216 26.492928-44.384256 33.308672-97.8944 39.3216-145.113088 2.711552-21.331968 5.28384-41.484288 9.355264-56.942592 4.374528-16.580608 8.896512-21.438464 10.633216-22.757376 1.998848-1.51552 5.77536-1.867776 11.239424-1.056768 30.121984 4.481024 51.027968 18.137088 63.913984 41.754624 26.427392 48.45568 14.753792 130.236416-10.4448 185.974784a42.713088 42.713088 0 0 0 3.014656 40.927232 42.655744 42.655744 0 0 0 35.995648 19.57888h218.079232a49.80736 49.80736 0 0 1 39.23968 18.948096 49.72544 49.72544 0 0 1 9.510912 42.442752z" fill="#272636" p-id="4557"></path></svg>