<?xml version="1.0" standalone="no"?><!DOCTYPE svg PUBLIC "-//W3C//DTD SVG 1.1//EN" "http://www.w3.org/Graphics/SVG/1.1/DTD/svg11.dtd"><svg t="1514601455639" class="icon" style="" viewBox="0 0 1024 1024" version="1.1" xmlns="http://www.w3.org/2000/svg" p-id="1702" xmlns:xlink="http://www.w3.org/1999/xlink" width="200" height="200"><defs><style type="text/css"></style></defs><path d="M384 901.312V768s0-64 64-64h128c64 0 64 64 64 64v160h192V602.432c-13.952 3.328-28.352 5.056-43.2 5.056-51.456 0-100.672-21.568-137.92-59.2A194.752 194.752 0 0 1 512.256 608c-51.584 0-100.928-21.696-138.304-59.456C336.64 586.368 287.232 608 235.712 608A186.24 186.24 0 0 1 192 602.816V928h192zM576 928V768H448v160h128zM128 574.08c-57.6-39.552-96-109.824-96-189.76 0-12.672 1.28-19.456 3.712-25.984L144.576 71.488C149.76 49.728 171.648 32 196.608 32h630.016c25.024 0 46.848 17.728 53.184 43.136l108.416 283.072C990.72 364.8 992 371.648 992 378.56c0 83.648-38.4 155.136-96 195.072V928s0 64-64 64H192c-64 0-64-64-64-64V574.08z m245.952-134.144l26.688 40.384C427.008 520.192 468.736 544 512.256 544c43.776 0 85.568-23.936 111.808-64l26.624-40.704 26.816 40.64c26.24 39.808 67.904 63.552 111.296 63.552 76.736 0 139.2-71.36 139.2-159.104L819.52 96h-616L95.552 381.056C96 472.384 158.656 544 235.712 544c43.52 0 85.248-23.808 111.552-63.68l26.688-40.384z" p-id="1703" fill="#1296db"></path></svg>