<?xml version="1.0" standalone="no"?><!DOCTYPE svg PUBLIC "-//W3C//DTD SVG 1.1//EN" "http://www.w3.org/Graphics/SVG/1.1/DTD/svg11.dtd"><svg t="1514601423650" class="icon" style="" viewBox="0 0 1075 1024" version="1.1" xmlns="http://www.w3.org/2000/svg" p-id="1009" data-spm-anchor-id="a313x.7781069.0.i0" xmlns:xlink="http://www.w3.org/1999/xlink" width="209.9609375" height="200"><defs><style type="text/css"></style></defs><path d="M1045.047056 336.022829L937.49194 671.2667a106.60485 106.60485 0 0 1-52.964831 62.717561 105.004402 105.004402 0 0 1-53.489977 11.678271l-232.590128 234.915778A105.404514 105.404514 0 0 1 523.050892 1012.11214a105.454528 105.454528 0 0 1-75.396111-31.53383L31.313201 560.035554a107.8552 107.8552 0 0 1-28.507982-100.3531l46.262954-202.481696a107.680151 107.680151 0 0 1 79.947386-80.697596l29.733326-6.92694 156.168728-132.562119a106.479815 106.479815 0 0 1 101.428401-20.005601l560.156849 183.35134a106.279759 106.279759 0 0 1 62.092387 53.489977 107.830193 107.830193 0 0 1 6.451806 82.17301zM137.692989 214.688854a68.369144 68.369144 0 0 0-50.839236 51.314368l-46.262954 202.506704a68.519186 68.519186 0 0 0 18.130077 63.842877l416.366586 420.542756c25.657184 25.907254 70.344697 25.85724 95.951868 0l246.719083-249.219784a68.394151 68.394151 0 0 0 19.880567-48.438563c0-18.330133-7.051975-35.53495-19.880567-48.463571L401.391827 186.230885a66.968752 66.968752 0 0 0-63.217702-18.305125l-200.481136 46.763094zM1004.06058 271.654805a67.518906 67.518906 0 0 0-39.511064-34.03453l-560.156849-183.35134a66.743689 66.743689 0 0 0-51.71448 4.151162 68.769256 68.769256 0 0 0-12.828593 8.577402l-98.027448 83.198296 87.649542-20.430721a106.579843 106.579843 0 0 1 99.327813 28.758053l416.366587 420.542756a107.505102 107.505102 0 0 1 31.233745 76.146322 108.28032 108.28032 0 0 1-8.702436 42.736966 68.119074 68.119074 0 0 0 32.909215-38.760853l107.555116-335.268878a68.519186 68.519186 0 0 0-4.101148-52.264635z m-683.1913 179.35022a83.773457 83.773457 0 0 1-59.966792 25.082023 83.823471 83.823471 0 0 1-59.966791-25.082023 86.374186 86.374186 0 0 1 0-121.133919 83.823471 83.823471 0 0 1 59.966791-25.082023 83.773457 83.773457 0 0 1 59.966792 25.082023c16.029488 16.17953 24.85696 37.685552 24.85696 60.566959 0 22.881407-8.852479 44.387429-24.85696 60.56696z m-27.407675-93.451168a45.512744 45.512744 0 0 0-32.559117-13.603809 45.512744 45.512744 0 0 0-32.559116 13.603809 46.938143 46.938143 0 0 0 0 65.768416c17.429881 17.554916 47.688353 17.554916 65.118233 0a46.513024 46.513024 0 0 0 13.503782-32.884208c0-12.42848-4.801344-24.081743-13.503782-32.884208z" fill="#1296db" p-id="1010"></path></svg>