<?xml version="1.0" standalone="no"?><!DOCTYPE svg PUBLIC "-//W3C//DTD SVG 1.1//EN" "http://www.w3.org/Graphics/SVG/1.1/DTD/svg11.dtd"><svg t="1505456852605" class="icon" style="" viewBox="0 0 1330 1024" version="1.1" xmlns="http://www.w3.org/2000/svg" p-id="2379" xmlns:xlink="http://www.w3.org/1999/xlink" width="41.5625" height="32"><defs><style type="text/css"></style></defs><path d="M914.190847 190.180915c0 0 121.591699-1.204817 121.591699 119.182064 0 0 11.260775 116.516287-121.591699 119.096683 0 0-119.025533 2.566166-117.806485-119.096683C796.389105 309.291829 795.094163 201.44169 914.190847 190.180915L914.190847 190.180915 914.190847 190.180915z" p-id="2380"></path><path d="M1217.64358 68.518066l0 501.901353c-3.173319-1.712359-6.375097-3.37254-9.614823-4.942598-17.123587-8.348342-35.338151-14.818306-54.349602-19.196442L1153.679155 7.115064C1153.679155 7.115064 1217.64358 12.100352 1217.64358 68.518066L1217.64358 68.518066z" p-id="2381"></path><path d="M905.24484 971.225199 74.238577 971.225199c-58.907986 0-61.474152-61.459922-61.474152-61.459922L12.764425 68.589216l60.198184 0 1.347119 723.350602 53.865777-1.219048 241.964351-362.346489 245.673671 303.310432 180.570836-181.709246 92.268149 93.643728c-31.998814 42.932296-50.905911 96.138744-50.905911 153.756531C837.7466 864.380656 863.327626 925.399444 905.24484 971.225199L905.24484 971.225199z" p-id="2382"></path><path d="M1153.679155 7.115064l0 61.403002L12.764425 68.518066C12.764425 5.839096 74.238577 7.115064 74.238577 7.115064L1153.679155 7.115064 1153.679155 7.115064z" p-id="2383"></path><path d="M1094.002742 798.983732 1096.934149 798.983732 1096.934149 795.796183 1094.002742 798.983732Z" p-id="2384"></path><path d="M1098.404595 590.815935c-114.97469 0-208.167797 93.188364-208.167797 208.167797 0 114.96046 93.202594 208.148823 208.167797 208.148823s208.139337-93.197851 208.139337-208.148823C1306.558162 684.009042 1213.369798 590.815935 1098.404595 590.815935L1098.404595 590.815935zM1133.946711 794.790587l0 142.187437-71.088975 0 0-142.187437-71.093719 0 106.645321-118.489531 106.631091 118.489531L1133.946711 794.790587 1133.946711 794.790587z" p-id="2385"></path></svg>